<svg width="20" height="20" viewBox="0 0 20 20" fill="none" xmlns="http://www.w3.org/2000/svg">
<path d="M0.320319 8.59193C0.541794 6.7348 1.30139 4.98294 2.50563 3.55193C2.63888 3.39126 2.80419 3.26016 2.991 3.16702C3.17781 3.07389 3.382 3.02077 3.59051 3.01107C3.79902 3.00136 4.00726 3.03528 4.20192 3.11066C4.39657 3.18603 4.57335 3.3012 4.72094 3.44881L7.31501 6.09818C7.56483 6.34743 7.71792 6.67737 7.74695 7.02907C7.77597 7.38078 7.67903 7.73135 7.47344 8.01818C7.31772 8.2391 7.20044 8.48475 7.12657 8.74474C7.1031 8.82146 7.05566 8.88862 6.9912 8.93638C6.92674 8.98413 6.84866 9.00995 6.76844 9.01006L0.693443 9.01006C0.640507 9.01014 0.588152 8.99902 0.539822 8.97742C0.491492 8.95582 0.448283 8.92423 0.413037 8.88474C0.377791 8.84524 0.351307 8.79873 0.335326 8.74826C0.319345 8.69779 0.314231 8.64452 0.320319 8.59193ZM10.8803 0.0156811C10.6731 -0.00238643 10.4645 0.0228271 10.2675 0.0897204C10.0706 0.156614 9.88976 0.263725 9.73645 0.404252C9.58314 0.54478 9.46072 0.715652 9.37698 0.906018C9.29324 1.09638 9.25 1.30208 9.25001 1.51006V5.32287C9.24741 5.67666 9.37107 6.01979 9.59875 6.2906C9.82643 6.56141 10.1432 6.74215 10.4922 6.80037C11.1493 6.90878 11.7517 7.23278 12.2044 7.7213C12.6571 8.20983 12.9343 8.8351 12.9924 9.49857C13.0505 10.162 12.8862 10.826 12.5254 11.3858C12.1645 11.9456 11.6277 12.3694 10.9994 12.5904C10.9263 12.6172 10.8631 12.6659 10.8185 12.7298C10.7739 12.7936 10.75 12.8697 10.75 12.9476L10.75 19.0629C10.7497 19.116 10.7606 19.1685 10.7821 19.2171C10.8035 19.2656 10.8351 19.3091 10.8746 19.3445C10.9141 19.38 10.9608 19.4066 11.0113 19.4227C11.0619 19.4388 11.1154 19.444 11.1681 19.4379C13.508 19.149 15.6648 18.0248 17.2416 16.272C18.8185 14.5193 19.7092 12.2561 19.75 9.89881C19.8203 4.80912 15.9241 0.467556 10.8803 0.0156811ZM8.99219 12.5876C8.57296 12.438 8.19226 12.1971 7.87769 11.8822C7.56311 11.5673 7.32255 11.1863 7.17344 10.7669C7.14788 10.6926 7.0999 10.6279 7.03611 10.5819C6.97231 10.5359 6.89584 10.5108 6.81719 10.5101L0.692506 10.5101C0.6395 10.5097 0.587025 10.5206 0.538542 10.5421C0.490059 10.5635 0.446669 10.5949 0.411233 10.6344C0.375798 10.6738 0.349123 10.7203 0.332967 10.7708C0.316811 10.8212 0.311542 10.8746 0.317506 10.9272C0.580112 13.0942 1.5616 15.1106 3.10508 16.654C4.64856 18.1975 6.66492 19.179 8.83188 19.4416C8.88455 19.4476 8.93789 19.4423 8.98837 19.4262C9.03886 19.41 9.08534 19.3833 9.12476 19.3479C9.16419 19.3125 9.19565 19.2691 9.21707 19.2206C9.2385 19.1721 9.2494 19.1196 9.24907 19.0666L9.24907 12.9476C9.24922 12.8682 9.22453 12.7909 9.17845 12.7263C9.13238 12.6617 9.06725 12.6132 8.99219 12.5876Z" fill="#B3B3B3"/>
</svg>
