<svg width="20" height="20" viewBox="0 0 20 20" fill="none" xmlns="http://www.w3.org/2000/svg">
<path d="M6.49941 14.7494L6.49941 5.74941C6.49941 5.55049 6.57843 5.35973 6.71908 5.21908C6.85973 5.07842 7.0505 4.99941 7.24941 4.99941H9.49941L9.49941 1.24941C9.49929 1.10098 9.54322 0.955865 9.62562 0.832419C9.70802 0.708974 9.8252 0.612754 9.96232 0.55594C10.0994 0.499126 10.2503 0.484271 10.3959 0.513259C10.5415 0.542247 10.6751 0.613772 10.78 0.718781L19.78 9.71878C19.8498 9.78844 19.9051 9.87115 19.9428 9.9622C19.9806 10.0533 20 10.1508 20 10.2494C20 10.348 19.9806 10.4456 19.9428 10.5366C19.9051 10.6277 19.8498 10.7104 19.78 10.78L10.78 19.78C10.6751 19.885 10.5415 19.9566 10.3959 19.9856C10.2503 20.0145 10.0994 19.9997 9.96232 19.9429C9.8252 19.8861 9.70802 19.7898 9.62562 19.6664C9.54322 19.543 9.49929 19.3978 9.49941 19.2494V15.4994H7.24941C7.0505 15.4994 6.85973 15.4204 6.71908 15.2797C6.57843 15.1391 6.49941 14.9483 6.49941 14.7494ZM4.24941 15.4994C4.44832 15.4994 4.63909 15.4204 4.77974 15.2797C4.92039 15.1391 4.99941 14.9483 4.99941 14.7494L4.99941 5.74941C4.99941 5.55049 4.92039 5.35973 4.77974 5.21908C4.63909 5.07842 4.44832 4.99941 4.24941 4.99941C4.0505 4.99941 3.85973 5.07842 3.71908 5.21908C3.57843 5.35973 3.49941 5.55049 3.49941 5.74941L3.49941 14.7494C3.49941 14.9483 3.57843 15.1391 3.71908 15.2797C3.85973 15.4204 4.0505 15.4994 4.24941 15.4994ZM1.24941 15.4994C1.44832 15.4994 1.63909 15.4204 1.77974 15.2797C1.92039 15.1391 1.99941 14.9483 1.99941 14.7494L1.99941 5.74941C1.99941 5.55049 1.92039 5.35973 1.77974 5.21908C1.63909 5.07842 1.44832 4.99941 1.24941 4.99941C1.0505 4.99941 0.859732 5.07842 0.71908 5.21908C0.578428 5.35973 0.499411 5.55049 0.499411 5.74941L0.499411 14.7494C0.499411 14.9483 0.578428 15.1391 0.71908 15.2797C0.859732 15.4204 1.0505 15.4994 1.24941 15.4994Z" fill="#B3B3B3"/>
</svg>
