<svg width="18" height="18" viewBox="0 0 18 18" fill="none" xmlns="http://www.w3.org/2000/svg">
<path d="M8.19279 12.9731C8.24964 13.1101 8.26458 13.261 8.23571 13.4065C8.20684 13.552 8.13546 13.6857 8.03061 13.7906L5.03061 16.7906C4.96095 16.8603 4.87823 16.9157 4.78719 16.9534C4.69614 16.9912 4.59854 17.0106 4.49998 17.0106C4.40142 17.0106 4.30382 16.9912 4.21278 16.9534C4.12173 16.9157 4.03901 16.8603 3.96936 16.7906L0.969355 13.7906C0.864347 13.6857 0.792821 13.552 0.763833 13.4065C0.734846 13.2609 0.749699 13.11 0.806513 12.9729C0.863328 12.8358 0.959548 12.7186 1.08299 12.6362C1.20644 12.5538 1.35156 12.5099 1.49998 12.51H3.74998L3.74998 1.25999C3.74998 1.06108 3.829 0.870312 3.96965 0.72966C4.1103 0.589007 4.30107 0.50999 4.49998 0.50999C4.69889 0.50999 4.88966 0.589007 5.03031 0.72966C5.17096 0.870312 5.24998 1.06108 5.24998 1.25999L5.24998 12.51L7.49998 12.51C7.64832 12.51 7.79331 12.554 7.91663 12.6365C8.03995 12.7189 8.13606 12.8361 8.19279 12.9731ZM17.0306 3.72936L14.0306 0.729365C13.961 0.659632 13.8782 0.604313 13.7872 0.56657C13.6961 0.528827 13.5985 0.509399 13.5 0.509399C13.4014 0.509399 13.3038 0.528827 13.2128 0.56657C13.1217 0.604313 13.039 0.659632 12.9694 0.729365L9.96936 3.72936C9.86435 3.83426 9.79282 3.96795 9.76383 4.11351C9.73485 4.25907 9.7497 4.40997 9.80651 4.54708C9.86333 4.6842 9.95955 4.80138 10.083 4.88378C10.2064 4.96618 10.3516 5.01011 10.5 5.00999H12.75L12.75 16.26C12.75 16.4589 12.829 16.6497 12.9697 16.7903C13.1103 16.931 13.3011 17.01 13.5 17.01C13.6989 17.01 13.8897 16.931 14.0303 16.7903C14.171 16.6497 14.25 16.4589 14.25 16.26L14.25 5.00999L16.5 5.00999C16.6484 5.01011 16.7935 4.96618 16.917 4.88378C17.0404 4.80138 17.1366 4.6842 17.1934 4.54708C17.2503 4.40997 17.2651 4.25907 17.2361 4.11351C17.2071 3.96795 17.1356 3.83426 17.0306 3.72936Z" fill="#B3B3B3"/>
</svg>
